<svg width="40" height="30" viewBox="0 0 40 30" fill="none" xmlns="http://www.w3.org/2000/svg">
<path d="M17.6311 28.8835L20.6262 10.976C20.6342 10.9278 20.6759 10.8925 20.7248 10.8925H23.0399C23.0772 10.8925 23.1115 10.9133 23.1287 10.9465L30.0976 24.391C30.1412 24.4752 30.2666 24.457 30.2846 24.3639L32.88 10.8925H29.3592H28.9945C28.9153 10.8925 28.8676 10.8048 28.9105 10.7382L33.7913 3.18216L35.18 1.12207C35.4205 0.765411 35.9692 0.858665 36.0783 1.27473L36.5785 3.18216L38.9593 10.7625C38.9795 10.8269 38.9314 10.8925 38.8639 10.8925H35.0882L32.1366 28.9162C32.1287 28.9645 32.0869 29 32.0379 29H29.7227C29.6855 29 29.6515 28.9794 29.6342 28.9465L22.801 15.9479C22.7566 15.8634 22.6303 15.8833 22.6139 15.9773L20.3597 28.9172C20.3514 28.965 20.3098 29 20.2612 29H17.7297C17.6679 29 17.6209 28.9445 17.6311 28.8835Z" fill="#4FAA89"/>
<path d="M32.88 10.8925L30.2846 24.3639C30.2666 24.457 30.1413 24.4752 30.0976 24.391L23.1287 10.9465C23.1115 10.9133 23.0772 10.8925 23.0399 10.8925H20.7248C20.6759 10.8925 20.6342 10.9278 20.6262 10.976L17.6311 28.8835C17.6209 28.9445 17.6679 29 17.7297 29H20.2612C20.3098 29 20.3514 28.965 20.3597 28.9172L22.6139 15.9773C22.6303 15.8833 22.7566 15.8634 22.801 15.9479L29.6342 28.9465C29.6515 28.9794 29.6855 29 29.7227 29H32.0379C32.0869 29 32.1287 28.9645 32.1366 28.9162L35.0882 10.8925M32.88 10.8925H35.0882M32.88 10.8925H29.3592H28.9945C28.9153 10.8925 28.8676 10.8048 28.9105 10.7382L33.7913 3.18216L35.18 1.12207C35.4205 0.765411 35.9692 0.858665 36.0783 1.27473L36.5785 3.18216L38.9593 10.7625C38.9795 10.8269 38.9314 10.8925 38.8639 10.8925H35.0882" stroke="#4FAA89" stroke-linecap="round"/>
<path d="M10.3876 10.9214L0.912529 28.8533C0.877339 28.9198 0.925622 29 1.00094 29H4.22494C4.2628 29 4.29742 28.9786 4.31436 28.9447L11.6368 14.3151C11.6802 14.2285 11.809 14.2479 11.8249 14.3435L14.245 28.9164C14.253 28.9646 14.2947 29 14.3436 29H17.4901C17.5531 29 17.6003 28.9426 17.5883 28.8808L14.0881 10.949C14.0789 10.902 14.0378 10.8681 13.9899 10.8681H10.476C10.4389 10.8681 10.4049 10.8886 10.3876 10.9214Z" fill="#4FAA89" stroke="#4FAA89" stroke-linecap="round"/>
</svg>
