<svg width="91" height="18" viewBox="0 0 91 18" fill="none" xmlns="http://www.w3.org/2000/svg">
<path d="M11.356 11.4016L9.88 4.59757C9.84 4.36557 9.792 4.10157 9.736 3.80557C9.68 3.50157 9.624 3.17357 9.568 2.82157C9.44 3.17357 9.312 3.50157 9.184 3.80557C9.056 4.10957 8.944 4.37757 8.848 4.60957L5.692 11.4016H11.356ZM15.292 17.8096H13.384C13.168 17.8096 13 17.7576 12.88 17.6536C12.76 17.5416 12.676 17.3976 12.628 17.2216L11.752 13.1776H4.864L2.992 17.2216C2.92 17.3816 2.804 17.5216 2.644 17.6416C2.484 17.7536 2.3 17.8096 2.092 17.8096H0.172L8.596 0.577569H11.092L15.292 17.8096ZM26.2538 7.46557C26.2138 7.50557 26.1738 7.54157 26.1338 7.57357C26.1018 7.59757 26.0538 7.60957 25.9898 7.60957C25.9098 7.60957 25.8018 7.55757 25.6658 7.45357C25.5298 7.34157 25.3458 7.22157 25.1138 7.09357C24.8818 6.96557 24.5898 6.84957 24.2378 6.74557C23.8938 6.63357 23.4738 6.57757 22.9778 6.57757C22.2898 6.57757 21.6778 6.70157 21.1418 6.94957C20.6138 7.18957 20.1658 7.53757 19.7978 7.99357C19.4298 8.44957 19.1498 9.00157 18.9578 9.64957C18.7738 10.2976 18.6818 11.0256 18.6818 11.8336C18.6818 12.6736 18.7778 13.4176 18.9698 14.0656C19.1698 14.7136 19.4498 15.2616 19.8098 15.7096C20.1698 16.1496 20.6058 16.4856 21.1178 16.7176C21.6298 16.9496 22.1978 17.0656 22.8218 17.0656C23.3978 17.0656 23.8778 16.9976 24.2618 16.8616C24.6538 16.7256 24.9738 16.5776 25.2218 16.4176C25.4778 16.2576 25.6778 16.1096 25.8218 15.9736C25.9658 15.8376 26.0858 15.7696 26.1818 15.7696C26.2778 15.7696 26.3578 15.8096 26.4218 15.8896L26.7218 16.2736C26.5378 16.5136 26.3058 16.7376 26.0258 16.9456C25.7458 17.1536 25.4298 17.3336 25.0778 17.4856C24.7258 17.6376 24.3418 17.7536 23.9258 17.8336C23.5178 17.9216 23.0898 17.9656 22.6418 17.9656C21.8818 17.9656 21.1858 17.8296 20.5538 17.5576C19.9298 17.2776 19.3898 16.8776 18.9338 16.3576C18.4858 15.8296 18.1338 15.1856 17.8778 14.4256C17.6298 13.6656 17.5058 12.8016 17.5058 11.8336C17.5058 10.9216 17.6258 10.0896 17.8658 9.33757C18.1058 8.58557 18.4578 7.93757 18.9218 7.39357C19.3858 6.84957 19.9498 6.42957 20.6138 6.13357C21.2858 5.82957 22.0538 5.67757 22.9178 5.67757C23.6938 5.67757 24.3818 5.80157 24.9818 6.04957C25.5818 6.29757 26.1058 6.63357 26.5538 7.05757L26.2538 7.46557ZM39.4581 17.8096H38.3061V7.09357H31.3941V15.1936C31.3941 15.5216 31.4341 15.8056 31.5141 16.0456C31.6021 16.2776 31.7181 16.4696 31.8621 16.6216C32.0141 16.7736 32.1901 16.8856 32.3901 16.9576C32.5901 17.0296 32.8061 17.0656 33.0381 17.0656C33.3261 17.0656 33.5741 17.0256 33.7821 16.9456C33.9901 16.8576 34.1701 16.7656 34.3221 16.6696C34.4741 16.5656 34.5981 16.4736 34.6941 16.3936C34.7901 16.3056 34.8661 16.2616 34.9221 16.2616C34.9861 16.2616 35.0501 16.3016 35.1141 16.3816L35.4261 16.8856C35.1221 17.2216 34.7341 17.4936 34.2621 17.7016C33.7981 17.9016 33.3141 18.0016 32.8101 18.0016C32.0021 18.0016 31.3701 17.7776 30.9141 17.3296C30.4661 16.8816 30.2421 16.1896 30.2421 15.2536V7.09357H28.5261C28.4381 7.09357 28.3661 7.06957 28.3101 7.02157C28.2541 6.97357 28.2261 6.90557 28.2261 6.81757V6.37357L30.2661 6.22957L30.5541 1.95757C30.5701 1.88557 30.6021 1.82157 30.6501 1.76557C30.6981 1.70957 30.7661 1.68157 30.8541 1.68157H31.3941V6.24157H39.4581V17.8096ZM39.9861 1.60957C39.9861 1.75357 39.9541 1.88957 39.8901 2.01757C39.8341 2.13757 39.7541 2.24557 39.6501 2.34157C39.5541 2.43757 39.4421 2.51357 39.3141 2.56957C39.1861 2.62557 39.0501 2.65357 38.9061 2.65357C38.7621 2.65357 38.6261 2.62557 38.4981 2.56957C38.3701 2.51357 38.2581 2.43757 38.1621 2.34157C38.0661 2.24557 37.9901 2.13757 37.9341 2.01757C37.8781 1.88957 37.8501 1.75357 37.8501 1.60957C37.8501 1.46557 37.8781 1.32957 37.9341 1.20157C37.9901 1.06557 38.0661 0.94957 38.1621 0.853569C38.2581 0.757569 38.3701 0.68157 38.4981 0.62557C38.6261 0.56957 38.7621 0.54157 38.9061 0.54157C39.0501 0.54157 39.1861 0.56957 39.3141 0.62557C39.4421 0.68157 39.5541 0.757569 39.6501 0.853569C39.7541 0.94957 39.8341 1.06557 39.8901 1.20157C39.9541 1.32957 39.9861 1.46557 39.9861 1.60957ZM53.1029 5.86957L48.0629 17.8096H47.0549L42.0149 5.86957H42.9149C43.0269 5.86957 43.1189 5.90157 43.1909 5.96557C43.2629 6.02157 43.3109 6.08557 43.3349 6.15757L47.2829 15.5776C47.4029 15.9296 47.4989 16.2776 47.5709 16.6216C47.6429 16.2776 47.7429 15.9296 47.8709 15.5776L51.8309 6.15757C51.8709 6.06957 51.9229 6.00157 51.9869 5.95357C52.0589 5.89757 52.1429 5.86957 52.2389 5.86957H53.1029ZM69.9018 0.577569L67.7778 17.8096H66.5298C66.3378 17.8096 66.1778 17.7736 66.0498 17.7016C65.9298 17.6296 65.8138 17.5136 65.7018 17.3536L58.4538 4.56157C58.4378 4.90557 58.4138 5.20557 58.3818 5.46157L56.8698 17.8096H54.7098L56.8218 0.577569H58.1058C58.3218 0.577569 58.4778 0.601569 58.5738 0.64957C58.6698 0.69757 58.7738 0.80957 58.8858 0.985569L66.1338 13.7776C66.1498 13.5776 66.1658 13.3896 66.1818 13.2136C66.1978 13.0376 66.2138 12.8696 66.2298 12.7096L67.7298 0.577569H69.9018ZM81.0237 10.6336C81.0237 9.99357 80.9317 9.42157 80.7477 8.91757C80.5717 8.40557 80.3197 7.97357 79.9917 7.62157C79.6637 7.26957 79.2717 7.00157 78.8157 6.81757C78.3677 6.62557 77.8717 6.52957 77.3277 6.52957C76.7117 6.52957 76.1597 6.62557 75.6717 6.81757C75.1837 7.00957 74.7597 7.28557 74.3997 7.64557C74.0477 8.00557 73.7637 8.43757 73.5477 8.94157C73.3317 9.44557 73.1877 10.0096 73.1157 10.6336H81.0237ZM73.0557 11.3656V11.5936C73.0557 12.4896 73.1597 13.2776 73.3677 13.9576C73.5757 14.6376 73.8717 15.2096 74.2557 15.6736C74.6397 16.1296 75.1037 16.4736 75.6477 16.7056C76.1917 16.9376 76.7997 17.0536 77.4717 17.0536C78.0717 17.0536 78.5917 16.9896 79.0317 16.8616C79.4717 16.7256 79.8397 16.5776 80.1357 16.4176C80.4397 16.2496 80.6797 16.1016 80.8557 15.9736C81.0317 15.8376 81.1597 15.7696 81.2397 15.7696C81.3437 15.7696 81.4237 15.8096 81.4797 15.8896L81.7917 16.2736C81.5997 16.5136 81.3437 16.7376 81.0237 16.9456C80.7117 17.1536 80.3597 17.3336 79.9677 17.4856C79.5837 17.6296 79.1677 17.7456 78.7197 17.8336C78.2797 17.9216 77.8357 17.9656 77.3877 17.9656C76.5717 17.9656 75.8277 17.8256 75.1557 17.5456C74.4837 17.2576 73.9077 16.8416 73.4277 16.2976C72.9477 15.7536 72.5757 15.0896 72.3117 14.3056C72.0557 13.5136 71.9277 12.6096 71.9277 11.5936C71.9277 10.7376 72.0477 9.94957 72.2877 9.22957C72.5357 8.50157 72.8877 7.87757 73.3437 7.35757C73.8077 6.82957 74.3717 6.41757 75.0357 6.12157C75.7077 5.82557 76.4677 5.67757 77.3157 5.67757C77.9877 5.67757 78.6117 5.79357 79.1877 6.02557C79.7637 6.25757 80.2637 6.59757 80.6877 7.04557C81.1117 7.48557 81.4437 8.02957 81.6837 8.67757C81.9317 9.32557 82.0557 10.0696 82.0557 10.9096C82.0557 11.0856 82.0317 11.2056 81.9837 11.2696C81.9357 11.3336 81.8557 11.3656 81.7437 11.3656H73.0557ZM88.3804 18.0016C87.5724 18.0016 86.9404 17.7776 86.4844 17.3296C86.0364 16.8816 85.8124 16.1896 85.8124 15.2536V7.09357H84.0964C84.0084 7.09357 83.9364 7.06957 83.8804 7.02157C83.8244 6.97357 83.7964 6.90557 83.7964 6.81757V6.37357L85.8364 6.22957L86.1244 1.95757C86.1404 1.88557 86.1724 1.82157 86.2204 1.76557C86.2684 1.70957 86.3364 1.68157 86.4244 1.68157H86.9644V6.24157H90.7324V7.09357H86.9644V15.1936C86.9644 15.5216 87.0044 15.8056 87.0844 16.0456C87.1724 16.2776 87.2884 16.4696 87.4324 16.6216C87.5844 16.7736 87.7604 16.8856 87.9604 16.9576C88.1604 17.0296 88.3764 17.0656 88.6084 17.0656C88.8964 17.0656 89.1444 17.0256 89.3524 16.9456C89.5604 16.8576 89.7404 16.7656 89.8924 16.6696C90.0444 16.5656 90.1684 16.4736 90.2644 16.3936C90.3604 16.3056 90.4364 16.2616 90.4924 16.2616C90.5564 16.2616 90.6204 16.3016 90.6844 16.3816L90.9964 16.8856C90.6924 17.2216 90.3044 17.4936 89.8324 17.7016C89.3684 17.9016 88.8844 18.0016 88.3804 18.0016Z" fill="#E4FAF9"/>
</svg>
